<svg id="visual" viewBox="0 0 1920 1080" width="1920" height="1080" xmlns="http://www.w3.org/2000/svg" xmlns:xlink="http://www.w3.org/1999/xlink" version="1.1"><rect x="0" y="0" width="1920" height="1080" fill="#303841"></rect><defs><linearGradient id="grad1_0" x1="43.8%" y1="0%" x2="100%" y2="100%"><stop offset="14.444444444444446%" stop-color="#303841" stop-opacity="1"></stop><stop offset="85.55555555555554%" stop-color="#303841" stop-opacity="1"></stop></linearGradient></defs><defs><linearGradient id="grad2_0" x1="0%" y1="0%" x2="56.3%" y2="100%"><stop offset="14.444444444444446%" stop-color="#303841" stop-opacity="1"></stop><stop offset="85.55555555555554%" stop-color="#303841" stop-opacity="1"></stop></linearGradient></defs><g transform="translate(1920, 0)"><path d="M0 594C-72.8 574 -145.7 554 -218.9 528.5C-292.1 503 -365.8 472 -420 420C-474.3 368.1 -509.2 295.1 -534.9 221.6C-560.7 148.1 -577.3 74 -594 0L0 0Z" fill="#f6c90e"></path></g><g transform="translate(0, 1080)"><path d="M0 -594C77.7 -584.4 155.5 -574.8 226.5 -546.9C297.6 -519.1 362.1 -473.1 417.9 -417.9C473.7 -362.7 520.9 -298.5 548.8 -227.3C576.7 -156.1 585.3 -78.1 594 0L0 0Z" fill="#f6c90e"></path></g></svg>