<svg id="visual" viewBox="0 0 1920 1080" width="1920" height="1080" xmlns="http://www.w3.org/2000/svg" xmlns:xlink="http://www.w3.org/1999/xlink" version="1.1"><rect x="0" y="0" width="1920" height="1080" fill="#303841"></rect><path d="M0 64L40 91C80 118 160 172 240 174.5C320 177 400 128 480 130C560 132 640 185 720 184.8C800 184.7 880 131.3 960 127.8C1040 124.3 1120 170.7 1200 215C1280 259.3 1360 301.7 1440 328C1520 354.3 1600 364.7 1680 322C1760 279.3 1840 183.7 1880 135.8L1920 88L1920 0L1880 0C1840 0 1760 0 1680 0C1600 0 1520 0 1440 0C1360 0 1280 0 1200 0C1120 0 1040 0 960 0C880 0 800 0 720 0C640 0 560 0 480 0C400 0 320 0 240 0C160 0 80 0 40 0L0 0Z" fill="#f6c90e" stroke-linecap="round" stroke-linejoin="miter"></path></svg>