<svg id="visual" viewBox="0 0 1920 1080" width="1920" height="1080" xmlns="http://www.w3.org/2000/svg" xmlns:xlink="http://www.w3.org/1999/xlink" version="1.1"><rect x="0" y="0" width="1920" height="1080" fill="#303841"></rect><path d="M0 783L40 819.8C80 856.7 160 930.3 240 950.7C320 971 400 938 480 900.2C560 862.3 640 819.7 720 843.2C800 866.7 880 956.3 960 969.2C1040 982 1120 918 1200 894.5C1280 871 1360 888 1440 879.2C1520 870.3 1600 835.7 1680 818C1760 800.3 1840 799.7 1880 799.3L1920 799L1920 1081L1880 1081C1840 1081 1760 1081 1680 1081C1600 1081 1520 1081 1440 1081C1360 1081 1280 1081 1200 1081C1120 1081 1040 1081 960 1081C880 1081 800 1081 720 1081C640 1081 560 1081 480 1081C400 1081 320 1081 240 1081C160 1081 80 1081 40 1081L0 1081Z" fill="#f6c90e" stroke-linecap="round" stroke-linejoin="miter"></path></svg>