<svg id="visual" viewBox="0 0 960 540" width="960" height="540" xmlns="http://www.w3.org/2000/svg" xmlns:xlink="http://www.w3.org/1999/xlink" version="1.1"><rect x="0" y="0" width="960" height="540" fill="#303841"></rect><path d="M0 109L22.8 119.8C45.7 130.7 91.3 152.3 137 160.7C182.7 169 228.3 164 274 154.8C319.7 145.7 365.3 132.3 411.2 119.7C457 107 503 95 548.8 90.8C594.7 86.7 640.3 90.3 686 100.3C731.7 110.3 777.3 126.7 823 123C868.7 119.3 914.3 95.7 937.2 83.8L960 72L960 0L937.2 0C914.3 0 868.7 0 823 0C777.3 0 731.7 0 686 0C640.3 0 594.7 0 548.8 0C503 0 457 0 411.2 0C365.3 0 319.7 0 274 0C228.3 0 182.7 0 137 0C91.3 0 45.7 0 22.8 0L0 0Z" fill="#f6c90e" stroke-linecap="round" stroke-linejoin="miter"></path></svg>