<?xml version="1.0" standalone="no"?>
<!DOCTYPE svg PUBLIC "-//W3C//DTD SVG 20010904//EN"
 "http://www.w3.org/TR/2001/REC-SVG-20010904/DTD/svg10.dtd">
<svg version="1.0" xmlns="http://www.w3.org/2000/svg"
 width="670.000000pt" height="670.000000pt" viewBox="0 0 670.000000 670.000000"
 preserveAspectRatio="xMidYMid meet">
<metadata>
Created by potrace 1.14, written by Peter Selinger 2001-2017
</metadata>
<g transform="translate(0.000000,670.000000) scale(0.100000,-0.100000)"
fill="#000000" stroke="none">
<path d="M120 4774 c-45 -20 -77 -50 -101 -96 -17 -33 -18 -64 -18 -397 0
-416 -3 -403 97 -525 31 -38 81 -99 110 -135 30 -36 75 -90 100 -120 26 -30
58 -69 72 -86 14 -18 59 -72 100 -121 41 -49 140 -168 219 -264 80 -96 148
-177 152 -180 23 -19 27 -67 25 -384 l-1 -340 -295 -1 c-162 0 -302 1 -311 3
-13 3 -15 44 -15 353 l1 349 -128 0 -128 0 3 -402 3 -403 24 -36 c14 -19 41
-46 60 -60 l36 -24 432 -3 c416 -3 434 -2 472 17 41 21 72 57 92 107 18 44 20
761 2 832 -11 44 -59 132 -83 152 -3 3 -62 73 -130 155 -68 83 -134 161 -147
175 -22 25 -107 128 -173 209 -19 23 -45 55 -58 69 -13 15 -80 96 -150 180
l-127 153 0 305 -1 304 312 0 312 0 0 -302 c0 -167 1 -313 1 -326 1 -22 2 -23
129 -20 l127 3 1 350 c0 387 -3 409 -60 465 -60 59 -59 59 -509 59 -348 0
-417 -2 -447 -15z"/>
<path d="M1592 3345 l0 -1445 122 0 121 0 0 1055 c-1 580 3 1048 8 1040 7 -14
30 -76 130 -356 23 -64 175 -482 337 -928 l295 -811 90 2 90 3 0 1443 0 1442
-121 0 -122 0 2 -1035 c0 -569 -1 -1035 -4 -1035 -3 0 -31 71 -62 158 -31 86
-185 510 -341 942 -157 432 -300 827 -318 878 l-33 92 -97 0 -98 0 1 -1445z"/>
<path d="M3211 4781 c-1 -7 -7 -11 -16 -7 -9 3 -15 0 -15 -9 0 -8 -6 -14 -12
-12 -7 1 -12 -4 -10 -10 1 -7 -5 -13 -13 -13 -13 0 -15 -159 -15 -1374 0
-1090 3 -1375 13 -1379 8 -4 7 -6 -3 -6 -9 -1 -5 -6 10 -14 14 -8 24 -19 22
-26 -2 -8 4 -10 18 -6 12 4 20 2 20 -5 0 -6 5 -8 13 -3 18 11 38 13 31 2 -7
-12 3 -11 27 1 11 6 25 7 32 3 17 -11 29 -11 51 0 13 6 16 6 12 -2 -9 -14 0
-14 26 0 14 8 23 8 31 0 7 -7 14 -7 24 0 9 8 13 8 13 0 0 -6 5 -11 11 -11 5 0
8 4 5 8 -6 11 40 9 50 -1 12 -12 26 -8 18 6 -5 7 0 6 11 -3 11 -9 16 -10 11
-2 -4 6 -2 12 3 12 6 0 11 -4 11 -10 0 -5 5 -10 11 -10 5 0 7 6 3 13 -6 9 -4
9 7 0 7 -7 17 -13 22 -13 4 0 5 6 1 13 -5 7 0 6 11 -3 11 -9 16 -10 11 -2 -4
6 -2 12 3 12 6 0 11 -4 11 -10 0 -5 5 -10 11 -10 5 0 7 6 3 13 -6 9 -4 9 7 -1
17 -16 32 -16 23 1 -5 7 0 6 11 -3 11 -9 16 -10 11 -3 -4 7 -2 13 3 13 6 0 11
-4 11 -10 0 -5 5 -10 11 -10 5 0 7 6 3 13 -6 10 -4 10 7 0 17 -17 32 -17 23
-1 -5 8 0 7 11 -2 11 -9 16 -10 11 -2 -4 6 -2 12 3 12 6 0 11 -5 11 -11 0 -8
4 -8 15 1 8 7 20 8 27 4 18 -12 30 -12 52 -1 13 6 16 6 12 -2 -9 -14 0 -14 25
-1 11 6 25 7 32 3 17 -11 29 -11 51 0 13 6 16 6 12 -2 -9 -14 0 -14 26 0 14 8
23 8 31 0 7 -7 14 -7 24 0 10 9 13 8 13 -1 0 -10 3 -10 15 0 8 7 20 8 27 4 18
-12 30 -12 52 -1 13 6 16 6 12 -2 -9 -14 0 -14 25 -1 11 6 25 7 32 3 17 -11
29 -11 51 0 13 6 16 6 12 -2 -9 -14 0 -14 25 -1 11 6 25 8 31 4 21 -13 59 -14
52 -1 -5 8 -3 8 7 0 7 -7 17 -13 22 -13 4 0 5 6 1 13 -5 7 0 6 11 -3 11 -9 16
-10 11 -2 -4 6 -2 12 3 12 6 0 11 -4 11 -10 0 -5 5 -10 11 -10 5 0 7 6 3 13
-6 10 -4 10 7 0 17 -17 32 -17 23 0 -5 7 0 6 11 -3 11 -9 16 -10 11 -2 -4 6
-2 12 3 12 6 0 11 -4 11 -10 0 -5 5 -10 11 -10 5 0 7 6 3 13 -6 10 -4 10 7 0
17 -17 32 -17 23 0 -5 7 0 6 11 -3 11 -9 16 -10 11 -2 -4 6 -2 12 3 12 6 0 11
-4 11 -10 0 -5 5 -10 11 -10 5 0 7 6 3 13 -6 10 -4 10 7 0 17 -17 32 -17 23 0
-5 7 0 6 11 -3 11 -9 16 -10 11 -2 -4 6 -2 12 3 12 6 0 11 -5 11 -11 0 -8 6
-7 17 2 11 10 14 10 9 2 -9 -16 -1 -16 25 -3 11 6 25 7 32 3 17 -11 29 -11 51
0 13 6 16 6 12 -2 -9 -14 0 -14 25 -1 11 6 25 7 32 3 17 -11 29 -11 51 0 13 6
16 6 12 -2 -9 -14 0 -14 25 -1 11 6 25 7 32 3 17 -11 29 -11 51 0 13 6 16 6
12 -2 -9 -14 0 -14 25 -1 11 6 25 7 32 3 17 -11 29 -11 51 0 13 6 16 6 12 -2
-9 -14 0 -14 25 0 14 7 24 7 33 0 9 -7 16 -7 24 1 9 9 12 9 12 0 0 -7 5 -12
11 -12 5 0 8 4 5 8 -6 11 40 9 50 -1 12 -12 26 -8 18 6 -5 7 0 6 11 -3 11 -9
16 -10 11 -2 -4 6 -2 12 3 12 6 0 11 -4 11 -10 0 -5 5 -10 11 -10 5 0 7 6 3
12 -6 11 -4 11 7 1 7 -7 17 -13 22 -13 4 0 5 6 1 13 -5 7 0 6 11 -3 11 -9 16
-10 11 -2 -4 6 -2 12 3 12 6 0 11 -4 11 -10 0 -5 5 -10 11 -10 5 0 7 6 3 13
-6 10 -4 10 7 0 17 -17 32 -17 23 -1 -5 8 0 7 11 -2 11 -9 16 -10 11 -2 -4 6
-2 12 3 12 6 0 11 -4 11 -10 0 -5 5 -10 11 -10 5 0 7 6 3 13 -6 9 -4 9 7 0 7
-7 17 -13 22 -13 4 0 5 6 1 13 -5 7 0 6 11 -3 11 -9 16 -10 11 -2 -4 6 -2 12
3 12 6 0 11 -5 11 -11 0 -8 5 -8 15 1 12 10 18 10 32 -1 9 -8 17 -14 17 -13
13 11 47 23 42 15 -9 -14 0 -14 25 0 15 8 24 7 36 -3 9 -7 17 -13 17 -12 13
11 47 23 42 15 -9 -14 0 -14 25 0 14 7 24 7 33 0 9 -7 16 -7 24 1 9 9 12 9 12
-1 0 -11 3 -11 15 -1 10 9 19 9 28 2 19 -16 21 -16 46 -3 14 8 21 9 17 2 -9
-14 0 -14 25 0 15 8 24 7 36 -3 9 -7 17 -13 17 -12 13 11 47 23 42 15 -9 -14
0 -14 25 -1 11 6 25 8 31 4 21 -13 59 -14 52 -1 -5 8 -3 8 7 0 7 -7 17 -13 22
-13 4 0 5 6 1 13 -5 7 0 6 11 -3 11 -9 16 -10 11 -2 -4 6 -2 12 3 12 6 0 11
-4 11 -10 0 -5 5 -10 11 -10 5 0 7 6 3 13 -6 10 -4 10 7 0 17 -17 32 -17 23
-1 -5 8 0 7 11 -2 11 -9 16 -10 11 -2 -4 6 -2 12 3 12 6 0 11 -4 11 -10 0 -5
5 -10 11 -10 5 0 7 6 3 13 -6 10 -4 10 7 0 15 -15 33 -18 25 -5 -3 5 1 9 9 9
8 0 12 -4 10 -8 -13 -20 28 1 51 27 14 16 23 23 19 15 -6 -9 -4 -12 4 -7 8 5
11 350 11 1386 l0 1379 -24 26 c-13 14 -31 25 -40 25 -10 0 -15 4 -12 8 6 11
-34 9 -51 -1 -7 -5 -13 -4 -13 1 0 5 -7 9 -15 9 -12 0 -12 -3 -2 -15 11 -13 9
-14 -13 -2 -29 16 -68 21 -76 8 -3 -4 -10 -8 -15 -8 -6 0 -8 4 -5 8 3 5 -1 9
-9 9 -8 0 -11 -5 -8 -11 4 -6 -1 -5 -10 3 -11 9 -17 10 -17 2 0 -6 -5 -11 -11
-11 -5 0 -8 4 -5 9 7 10 -20 9 -30 -2 -4 -4 -13 -2 -21 4 -9 9 -13 8 -13 0 0
-6 -5 -11 -11 -11 -5 0 -8 4 -5 9 7 10 -20 9 -30 -2 -4 -4 -13 -2 -21 4 -9 9
-13 8 -13 0 0 -6 -5 -11 -11 -11 -5 0 -8 4 -5 9 7 10 -20 9 -30 -2 -4 -4 -13
-2 -21 4 -9 9 -13 8 -13 0 0 -6 -5 -11 -11 -11 -5 0 -8 4 -5 9 7 10 -20 9 -30
-2 -4 -4 -13 -2 -21 4 -9 9 -13 8 -13 0 0 -6 -5 -11 -11 -11 -5 0 -8 4 -5 9 7
10 -20 9 -30 -2 -4 -4 -13 -2 -21 4 -9 9 -13 8 -13 0 0 -6 -5 -11 -11 -11 -5
0 -8 4 -5 9 7 10 -20 9 -30 -2 -4 -4 -13 -2 -21 4 -9 9 -13 8 -13 0 0 -6 -5
-11 -11 -11 -5 0 -8 4 -5 9 7 10 -20 9 -30 -2 -4 -4 -13 -2 -21 4 -9 9 -13 8
-13 0 0 -6 -5 -11 -11 -11 -5 0 -8 4 -5 9 6 9 -46 7 -62 -3 -6 -3 -13 0 -15 6
-4 10 -6 9 -6 -1 -1 -11 -4 -11 -18 0 -15 12 -16 12 -10 -3 8 -22 3 -23 -17
-2 -12 12 -16 12 -16 2 0 -10 -3 -9 -10 2 -7 11 -10 11 -10 2 0 -8 -5 -10 -12
-5 -23 13 -59 11 -54 -4 7 -17 1 -17 -18 3 -12 12 -16 12 -16 2 0 -10 -3 -9
-10 2 -7 11 -10 11 -10 2 0 -8 -5 -10 -12 -5 -23 13 -59 11 -54 -4 7 -17 1
-17 -18 3 -12 12 -16 12 -16 2 0 -10 -3 -9 -10 2 -7 11 -10 11 -10 2 0 -8 -5
-10 -12 -5 -23 13 -59 11 -54 -4 7 -17 1 -17 -18 3 -12 12 -16 12 -16 2 0 -10
-3 -9 -10 2 -7 11 -10 11 -10 2 0 -8 -5 -10 -12 -5 -23 13 -59 11 -54 -4 7
-17 1 -17 -18 3 -12 12 -16 12 -16 2 0 -10 -3 -9 -10 2 -7 11 -10 11 -10 2 0
-8 -5 -10 -12 -5 -23 13 -59 11 -54 -4 7 -17 1 -17 -18 3 -12 12 -16 12 -16 2
0 -10 -3 -9 -10 2 -7 11 -10 11 -10 2 0 -8 -5 -10 -12 -5 -23 13 -59 11 -54
-4 7 -17 1 -17 -18 3 -12 12 -16 12 -16 2 0 -10 -3 -9 -10 2 -7 11 -10 11 -10
2 0 -8 -5 -10 -12 -5 -23 13 -59 11 -54 -4 7 -17 1 -17 -18 3 -12 12 -16 12
-16 2 0 -10 -3 -9 -10 2 -7 11 -10 11 -10 2 0 -8 -5 -10 -12 -5 -23 13 -59 11
-54 -4 7 -17 1 -17 -18 3 -12 12 -16 12 -16 2 0 -10 -3 -9 -10 2 -7 11 -10 11
-10 2 0 -8 -5 -10 -12 -5 -23 13 -59 11 -54 -4 7 -17 1 -17 -18 3 -12 12 -16
12 -16 2 0 -10 -3 -9 -10 2 -8 12 -10 12 -10 1 0 -10 -3 -11 -14 -2 -10 9 -16
9 -21 1 -5 -8 -11 -8 -21 1 -11 9 -14 9 -14 -1 0 -10 -3 -10 -15 0 -10 9 -15
9 -15 1 0 -6 -5 -11 -11 -11 -5 0 -8 4 -5 9 7 10 -20 9 -30 -2 -4 -4 -13 -2
-21 4 -9 9 -13 8 -13 0 0 -6 -5 -11 -11 -11 -5 0 -8 4 -5 9 7 10 -20 9 -30 -2
-4 -4 -13 -2 -21 4 -9 9 -13 8 -13 0 0 -6 -5 -11 -11 -11 -5 0 -8 4 -5 9 7 10
-20 9 -30 -2 -4 -4 -13 -2 -21 4 -9 9 -13 8 -13 0 0 -6 -5 -11 -11 -11 -5 0
-8 4 -5 9 7 10 -20 9 -30 -2 -4 -4 -13 -2 -21 4 -9 9 -13 8 -13 0 0 -6 -5 -11
-11 -11 -5 0 -8 4 -5 9 7 10 -20 9 -30 -2 -4 -4 -13 -2 -21 4 -9 9 -13 8 -13
0 0 -6 -5 -11 -11 -11 -5 0 -8 4 -5 9 7 10 -20 9 -30 -2 -4 -4 -13 -2 -21 4
-9 9 -13 8 -13 0 0 -6 -5 -11 -11 -11 -5 0 -8 4 -5 9 7 10 -20 9 -30 -2 -4 -4
-13 -2 -21 4 -9 9 -13 8 -13 0 0 -6 -5 -11 -11 -11 -5 0 -8 4 -5 9 6 9 -46 7
-62 -3 -6 -3 -13 0 -15 6 -4 10 -6 9 -6 -1 -1 -11 -4 -11 -18 0 -15 12 -16 12
-10 -3 4 -12 2 -15 -8 -11 -8 3 -13 9 -10 13 6 10 -15 8 -32 -3 -8 -5 -13 -3
-13 5 0 10 -2 10 -9 -1 -7 -11 -9 -11 -14 0 -5 12 -6 12 -6 0 -1 -11 -4 -11
-18 0 -15 12 -16 12 -10 -3 4 -12 2 -15 -8 -11 -8 3 -13 9 -10 13 6 10 -15 8
-32 -3 -8 -5 -13 -3 -13 5 0 10 -2 10 -9 -1 -7 -11 -9 -11 -14 0 -5 12 -6 12
-6 0 -1 -11 -4 -11 -18 0 -15 12 -16 12 -10 -3 4 -12 2 -15 -8 -11 -8 3 -13 9
-10 13 6 10 -15 8 -32 -3 -8 -5 -13 -3 -13 5 0 10 -2 10 -9 -1 -7 -11 -9 -11
-14 0 -5 12 -6 12 -6 0 -1 -11 -4 -11 -18 0 -15 12 -16 12 -10 -3 4 -12 2 -15
-8 -11 -8 3 -13 9 -10 13 6 10 -15 8 -32 -3 -8 -5 -13 -3 -13 5 0 9 -3 9 -10
-2 -9 -13 -10 -13 -10 0 0 13 -1 13 -10 0 -9 -13 -11 -13 -20 0 -9 13 -10 13
-10 0 0 -13 -1 -13 -10 0 -6 10 -10 11 -10 3 0 -7 -5 -13 -11 -13 -5 0 -7 6
-3 13 5 8 2 8 -9 -2 -14 -11 -17 -11 -17 0 0 12 -2 12 -9 0 -7 -11 -9 -11 -14
0 -5 12 -6 12 -6 0z m137 -189 c8 -1 11 2 8 7 -4 5 3 9 14 8 11 -1 20 -5 20
-10 0 -4 6 -5 12 -1 18 11 48 12 54 2 3 -4 13 -4 23 2 12 6 22 5 31 -3 10 -9
11 -9 6 1 -4 6 -2 12 3 12 6 0 11 -5 11 -10 0 -7 7 -7 21 1 16 8 20 8 14 -1
-6 -9 -3 -9 12 -2 11 6 25 7 33 2 8 -5 22 -4 34 2 15 8 21 8 24 -2 3 -9 6 -9
13 1 7 11 9 11 9 1 0 -10 5 -10 21 -1 16 8 20 8 14 -1 -6 -9 -3 -9 12 -2 11 6
25 7 33 2 8 -5 22 -4 33 2 14 7 22 7 27 -2 5 -8 10 -9 14 -2 8 14 46 11 46 -3
0 -5 5 -3 10 5 8 12 10 12 10 1 0 -11 3 -11 15 -1 12 10 15 10 15 0 0 -9 4 -9
17 1 14 12 15 12 9 1 -7 -11 -4 -12 12 -3 24 13 35 14 28 3 -2 -4 4 -8 14 -8
10 0 16 4 14 8 -3 4 0 8 5 8 6 0 11 -5 11 -10 0 -7 7 -7 21 1 17 9 20 8 14 -2
-6 -8 -4 -10 5 -4 20 12 120 13 120 1 0 -6 5 -4 10 4 8 12 10 12 10 1 0 -11 3
-11 15 -1 11 9 15 9 15 1 0 -7 5 -9 12 -5 18 11 118 12 118 1 0 -5 8 -3 17 4
15 12 16 12 8 -1 -6 -12 -5 -13 5 -3 10 9 17 10 27 2 9 -9 17 -8 28 1 11 9 15
9 15 1 0 -9 5 -9 21 0 17 9 20 8 14 -2 -6 -8 -4 -10 4 -4 19 11 101 14 101 3
0 -6 7 -5 15 2 11 9 15 9 15 1 0 -7 5 -9 12 -5 19 12 118 12 118 0 0 -7 3 -8
8 -1 10 14 32 17 32 4 0 -5 6 -7 12 -3 18 11 48 12 54 2 3 -4 10 -5 16 -2 18
12 98 12 98 0 0 -6 5 -4 10 4 8 12 10 12 10 1 0 -11 3 -11 15 -1 11 9 15 9 15
1 0 -7 5 -9 12 -5 18 11 118 12 118 1 0 -5 8 -3 17 4 15 12 16 12 8 -1 -6 -12
-5 -13 5 -3 10 9 17 9 26 2 7 -6 19 -7 26 -3 19 12 38 13 38 3 0 -6 6 -7 12
-3 18 11 48 12 54 2 3 -4 10 -6 15 -2 17 10 59 12 59 2 0 -5 10 -4 21 3 17 9
20 8 14 -2 -6 -8 -4 -10 4 -4 19 11 101 14 101 3 0 -6 7 -5 15 2 11 9 15 9 15
1 0 -7 5 -9 12 -5 18 11 118 12 118 1 0 -6 5 -5 13 0 16 13 47 12 47 -1 0 -6
5 -4 10 4 8 12 10 12 10 1 0 -11 3 -11 15 -1 11 9 15 9 15 1 0 -7 5 -9 12 -5
18 11 118 12 118 1 0 -5 8 -3 17 4 15 12 16 12 8 -1 -7 -13 -6 -13 7 -2 12 9
18 10 23 2 4 -6 14 -8 24 -5 29 13 61 13 61 2 0 -7 5 -5 10 3 8 12 10 12 10 1
0 -11 3 -11 15 -1 11 9 15 9 15 1 0 -7 5 -9 12 -5 18 11 118 12 118 1 0 -5 8
-3 17 4 15 12 16 12 8 -1 -6 -12 -5 -13 5 -3 10 9 17 10 27 2 9 -9 17 -8 28 1
11 9 15 9 15 1 0 -9 5 -9 21 0 17 9 20 8 14 -2 -5 -8 -4 -10 4 -5 22 14 61 14
72 0 6 -7 8 -23 4 -35 -4 -12 -3 -19 2 -16 5 4 10 0 10 -8 0 -8 -4 -12 -9 -9
-4 3 -8 3 -8 0 0 -2 -3 -13 -6 -23 -5 -15 -4 -16 6 -3 10 13 11 11 7 -7 -3
-13 -1 -25 4 -29 5 -3 2 -16 -7 -30 -9 -14 -12 -24 -6 -24 7 0 11 -23 10 -59
-1 -40 -5 -58 -12 -54 -6 4 -3 -3 7 -14 18 -20 18 -21 -4 -37 -16 -11 -25 -12
-30 -5 -4 7 -9 7 -12 2 -7 -10 -71 -8 -89 3 -7 4 -8 3 -4 -4 4 -7 3 -12 -3
-12 -5 0 -13 5 -16 10 -4 6 -11 8 -16 4 -17 -10 -59 -15 -59 -6 0 5 -10 8 -22
6 -13 -1 -23 -3 -23 -4 0 -1 -8 -3 -17 -5 -10 -2 -18 2 -18 8 0 8 -3 7 -9 -1
-11 -17 -21 -17 -32 0 -7 11 -9 11 -9 -1 0 -10 -3 -11 -13 -2 -8 6 -17 8 -21
4 -4 -4 -19 -9 -34 -10 -21 -3 -24 -1 -12 7 20 13 4 13 -21 -1 -14 -7 -24 -7
-33 0 -7 6 -16 8 -19 4 -10 -9 -59 -10 -85 -1 -15 5 -21 4 -17 -2 3 -6 2 -10
-4 -10 -5 0 -13 5 -16 10 -4 6 -11 8 -16 4 -17 -10 -59 -15 -59 -6 0 5 -10 8
-22 6 -13 -1 -23 -3 -23 -4 0 -1 -8 -3 -17 -5 -10 -2 -18 2 -18 8 0 8 -3 7 -9
-1 -11 -17 -21 -17 -32 0 -7 11 -9 11 -9 -1 0 -10 -3 -11 -13 -2 -8 6 -17 8
-21 4 -4 -4 -19 -9 -34 -10 -21 -3 -24 -1 -12 7 20 13 4 13 -21 -1 -14 -7 -24
-7 -33 0 -7 6 -16 8 -19 4 -10 -9 -59 -10 -85 -1 -15 5 -21 4 -17 -2 3 -6 2
-10 -4 -10 -5 0 -13 5 -16 10 -4 6 -11 8 -16 4 -17 -10 -59 -15 -59 -6 0 5
-10 8 -22 6 -13 -1 -23 -3 -23 -4 0 -1 -8 -3 -17 -5 -10 -2 -18 2 -18 8 0 8
-3 7 -9 -1 -11 -17 -21 -17 -32 0 -7 11 -9 11 -9 -1 0 -10 -3 -11 -13 -2 -8 6
-17 8 -21 4 -4 -4 -19 -9 -34 -10 -21 -3 -24 -1 -12 7 20 13 4 13 -21 -1 -14
-7 -24 -7 -33 0 -7 6 -16 8 -19 4 -10 -9 -59 -10 -85 -1 -15 5 -21 4 -17 -2 3
-6 2 -10 -4 -10 -5 0 -13 5 -16 10 -4 6 -11 8 -16 4 -17 -10 -59 -15 -59 -6 0
5 -10 8 -22 6 -13 -1 -23 -3 -23 -4 0 -1 -8 -3 -17 -5 -10 -2 -18 2 -18 8 0 8
-3 7 -9 -1 -4 -8 -12 -14 -16 -14 -4 0 -12 6 -16 14 -7 11 -9 11 -9 -1 0 -10
-3 -11 -13 -2 -8 6 -17 8 -21 4 -4 -4 -19 -9 -34 -10 -21 -3 -24 -1 -12 7 20
13 4 13 -21 -1 -14 -7 -24 -7 -33 0 -7 6 -16 8 -19 4 -10 -9 -59 -10 -85 -1
-15 5 -21 4 -17 -2 3 -6 2 -10 -4 -10 -5 0 -13 5 -16 10 -4 6 -11 8 -16 4 -17
-10 -59 -15 -59 -6 0 5 -10 8 -22 6 -13 -1 -23 -3 -23 -4 0 -1 -8 -3 -17 -5
-10 -2 -18 2 -18 8 0 8 -3 7 -9 -1 -4 -8 -12 -14 -16 -14 -4 0 -12 6 -16 14
-7 11 -9 11 -9 -1 0 -10 -3 -11 -13 -2 -8 6 -17 8 -21 4 -4 -4 -19 -9 -34 -10
-21 -3 -24 -1 -12 7 20 13 4 13 -21 -1 -14 -7 -24 -7 -33 0 -7 6 -15 8 -19 5
-9 -9 -57 -12 -57 -3 0 5 -5 9 -11 9 -5 0 -7 -5 -3 -11 4 -7 -1 -7 -16 1 -15
8 -20 8 -16 1 4 -6 3 -11 -3 -11 -5 0 -13 5 -16 10 -4 6 -11 8 -16 4 -17 -10
-59 -15 -59 -6 0 5 -10 8 -22 6 -13 -1 -23 -3 -23 -4 0 -1 -8 -3 -17 -5 -10
-2 -18 2 -18 8 0 8 -3 7 -9 -1 -4 -8 -12 -14 -16 -14 -4 0 -12 6 -16 14 -7 11
-9 11 -9 -1 0 -10 -3 -11 -13 -2 -8 6 -17 8 -21 4 -4 -4 -19 -9 -34 -10 -21
-3 -24 -1 -12 7 20 13 4 13 -21 -1 -14 -7 -24 -7 -33 0 -7 6 -16 8 -19 4 -10
-9 -59 -10 -85 -1 -15 5 -21 4 -17 -2 3 -6 2 -10 -4 -10 -5 0 -13 5 -16 10 -4
6 -11 8 -16 4 -17 -10 -59 -15 -59 -6 0 5 -10 8 -22 6 -13 -1 -23 -3 -23 -4 0
-1 -8 -3 -17 -5 -10 -2 -18 1 -18 6 0 5 -5 8 -12 7 -8 -2 -11 17 -10 65 1 46
-3 67 -11 67 -8 0 -7 4 2 9 8 5 15 21 15 34 1 14 -2 23 -6 21 -4 -3 -8 0 -8 5
0 6 6 11 13 11 7 0 8 3 2 8 -14 10 -17 65 -4 56 8 -4 8 -1 1 12 -13 24 -13 34
0 58 6 10 13 15 17 10 3 -5 12 -10 19 -12z m42 -536 c0 -5 7 -3 15 4 11 9 15
9 15 1 0 -9 5 -9 21 0 16 8 20 8 14 -1 -6 -9 -3 -9 12 -1 11 6 23 7 27 4 10
-10 46 -11 46 -1 0 5 9 4 20 -2 11 -6 20 -7 20 -3 0 10 41 10 58 -1 7 -4 12
-2 12 5 0 8 4 8 15 -1 12 -10 15 -10 15 0 0 10 3 10 15 0 11 -9 15 -9 15 -1 0
7 5 9 12 5 17 -11 58 -11 58 -1 0 4 9 3 20 -3 11 -6 20 -7 20 -3 0 4 11 8 25
8 14 0 25 -4 25 -9 0 -5 7 -3 15 4 11 9 15 9 15 1 0 -9 5 -9 21 0 16 8 20 8
14 -1 -6 -9 -3 -9 12 -1 11 6 23 7 27 4 10 -10 46 -11 46 -1 0 5 9 4 20 -2 11
-6 20 -7 20 -3 0 10 41 10 58 -1 7 -4 12 -2 12 5 0 8 4 8 15 -1 12 -10 15 -10
15 0 0 10 3 10 15 0 11 -9 15 -9 15 -1 0 7 5 9 12 5 17 -11 58 -11 58 -1 0 4
9 3 20 -3 11 -6 20 -7 20 -3 0 4 11 8 25 8 14 0 25 -4 25 -9 0 -5 7 -3 15 4
11 9 15 9 15 1 0 -9 5 -9 21 0 16 8 20 8 14 -1 -6 -9 -3 -9 12 -1 11 6 23 7
27 4 10 -10 46 -11 46 -1 0 5 9 4 20 -2 11 -6 20 -7 20 -3 0 10 41 10 58 -1 7
-4 12 -2 12 5 0 8 4 8 15 -1 12 -10 15 -10 15 0 0 10 3 10 15 0 11 -9 15 -9
15 -1 0 7 5 9 12 5 17 -11 58 -11 58 -1 0 4 9 3 20 -3 11 -6 20 -7 20 -3 0 4
11 8 25 8 14 0 25 -4 25 -9 0 -5 7 -3 15 4 11 9 15 9 15 1 0 -9 5 -9 21 0 16
8 20 8 14 -1 -6 -9 -3 -9 12 -1 11 6 23 7 27 4 10 -10 46 -11 46 -1 0 5 9 4
20 -2 11 -6 20 -7 20 -3 0 10 41 10 58 -1 7 -4 12 -2 12 5 0 8 4 8 15 -1 12
-10 15 -10 15 0 0 10 3 10 15 0 11 -9 15 -9 15 -1 0 7 5 9 12 5 17 -11 58 -11
58 -1 0 4 9 3 20 -3 11 -6 20 -7 20 -3 0 4 11 8 25 8 14 0 25 -4 25 -9 0 -5 7
-3 15 4 11 9 15 9 15 1 0 -9 5 -9 21 0 16 8 20 8 14 -1 -6 -9 -3 -9 12 -1 11
6 23 7 27 4 10 -10 46 -11 46 -1 0 5 9 4 20 -2 11 -6 20 -7 20 -3 0 10 41 10
58 -1 7 -4 12 -2 12 5 0 8 4 8 15 -1 12 -10 15 -10 15 0 0 10 3 10 15 0 11 -9
15 -9 15 -1 0 7 5 9 12 5 17 -11 58 -11 58 -1 0 4 9 3 20 -3 11 -6 20 -7 20
-3 0 4 11 8 25 8 14 0 25 -4 25 -9 0 -5 7 -3 15 4 11 9 15 9 15 1 0 -9 5 -9
21 0 16 8 20 8 14 -1 -6 -9 -3 -9 12 -1 11 6 23 7 27 4 10 -10 46 -11 46 -1 0
5 9 4 20 -2 11 -6 20 -7 20 -3 0 10 41 10 58 -1 7 -4 12 -2 12 5 0 8 4 8 15
-1 12 -10 15 -10 15 0 0 10 3 10 15 0 11 -9 15 -9 15 -1 0 7 5 9 12 5 17 -11
58 -11 58 -1 0 4 9 3 20 -3 11 -6 20 -7 20 -3 0 4 11 8 25 8 14 0 25 -4 25 -9
0 -5 7 -3 15 4 11 9 15 9 15 1 0 -9 5 -9 21 0 16 8 20 8 14 -1 -6 -9 -3 -9 13
-1 12 6 23 7 26 2 7 -10 25 -9 44 2 7 5 12 3 12 -3 0 -8 6 -8 20 0 15 8 20 8
20 -1 0 -8 4 -8 13 -1 9 8 18 4 35 -13 14 -15 19 -26 12 -30 -8 -5 -7 -12 2
-23 11 -13 11 -14 -1 -7 -11 6 -13 4 -8 -7 3 -9 0 -21 -6 -28 -9 -10 -9 -11 2
-5 11 6 13 3 9 -12 -3 -11 -1 -28 5 -38 7 -13 6 -16 -2 -11 -6 4 -11 5 -11 2
0 -2 -3 -13 -6 -23 -5 -15 -4 -16 6 -3 10 13 11 11 7 -7 -3 -13 -1 -25 4 -29
5 -3 2 -16 -7 -30 -9 -14 -12 -24 -6 -24 7 0 11 -23 10 -59 -1 -40 -5 -58 -12
-54 -6 4 -3 -3 7 -14 13 -15 15 -23 7 -28 -9 -5 -9 -10 -1 -18 6 -6 11 -16 11
-22 0 -5 -5 -3 -11 5 -8 11 -9 8 -4 -13 4 -22 3 -27 -7 -21 -11 6 -11 5 0 -8
13 -16 12 -44 -2 -67 -7 -10 -6 -12 4 -6 10 6 12 3 8 -12 -3 -11 -1 -28 5 -38
7 -13 6 -16 -2 -11 -6 4 -11 5 -11 2 0 -2 -3 -13 -6 -23 -5 -15 -4 -16 6 -3
10 13 11 11 7 -7 -3 -13 -1 -25 4 -29 5 -3 2 -16 -7 -30 -9 -14 -12 -24 -6
-24 7 0 11 -23 10 -59 -1 -40 -5 -58 -12 -54 -6 4 -3 -3 7 -14 13 -15 15 -23
7 -28 -9 -5 -9 -10 -1 -18 6 -6 11 -16 11 -22 0 -5 -5 -3 -11 5 -8 11 -9 8 -4
-13 4 -22 3 -27 -7 -21 -11 6 -11 5 0 -8 13 -16 12 -44 -2 -67 -7 -10 -6 -12
4 -6 10 6 12 3 8 -12 -3 -11 -1 -28 5 -38 7 -13 6 -16 -2 -11 -6 4 -11 5 -11
2 0 -2 -3 -13 -6 -23 -5 -15 -4 -16 6 -3 10 13 11 11 7 -7 -3 -13 -1 -25 4
-29 5 -3 2 -16 -7 -30 -9 -14 -12 -24 -6 -24 7 0 11 -23 10 -59 -1 -40 -5 -58
-12 -54 -6 4 -3 -3 7 -14 13 -15 15 -23 7 -28 -9 -5 -9 -10 -1 -18 6 -6 11
-16 11 -22 0 -5 -5 -3 -11 5 -8 11 -9 8 -4 -13 4 -22 3 -27 -7 -21 -11 6 -11
5 0 -8 13 -16 12 -44 -2 -67 -7 -10 -6 -12 4 -6 10 6 12 3 8 -12 -3 -11 -1
-28 5 -38 7 -13 6 -16 -2 -11 -6 4 -11 5 -11 2 0 -2 -3 -13 -6 -23 -5 -15 -4
-16 6 -3 10 13 11 11 7 -7 -3 -13 -1 -25 4 -29 5 -3 2 -16 -7 -30 -9 -14 -12
-24 -6 -24 7 0 11 -23 10 -59 -1 -40 -5 -58 -12 -54 -6 4 -3 -3 7 -14 13 -14
15 -23 7 -28 -8 -5 -7 -11 2 -23 11 -13 11 -14 -1 -7 -11 6 -13 4 -8 -9 4 -10
1 -24 -7 -32 -18 -17 -30 -18 -20 -1 6 9 5 9 -7 0 -16 -13 -36 -12 -58 1 -9 6
-12 5 -8 -1 4 -6 -123 -9 -349 -9 -242 0 -354 3 -354 10 0 8 -3 8 -8 0 -10
-14 -224 -14 -234 0 -5 8 -8 7 -8 -1 0 -13 -57 -12 -79 1 -9 6 -12 5 -8 -1 9
-14 -136 -12 -145 2 -5 7 -8 7 -8 -1 0 -14 -222 -14 -232 0 -5 8 -8 7 -8 -1 0
-13 -57 -12 -79 1 -9 6 -12 5 -8 -1 9 -14 -136 -12 -145 2 -5 7 -8 7 -8 -1 0
-14 -230 -14 -230 0 0 8 -3 8 -8 0 -10 -15 -712 -15 -712 0 0 8 -3 8 -8 0 -10
-14 -224 -14 -234 0 -5 8 -8 7 -8 -1 0 -13 -57 -12 -79 1 -9 6 -12 5 -8 -1 11
-17 -136 -11 -150 7 -6 8 -9 18 -7 22 3 5 -1 8 -8 8 -10 0 -10 2 1 9 8 5 15
21 15 34 1 14 -2 23 -7 20 -5 -3 -6 4 -2 16 4 14 2 21 -7 21 -8 0 -6 4 5 11
13 8 15 14 7 30 -8 14 -7 19 2 19 8 0 9 3 3 8 -15 11 -17 64 -2 57 7 -4 4 0
-6 8 -12 10 -14 16 -6 19 7 2 13 16 13 30 1 15 -2 24 -7 21 -5 -3 -6 4 -2 16
4 14 2 21 -7 21 -8 0 -6 5 5 11 17 10 17 12 2 36 -10 14 -12 22 -5 18 15 -9
11 53 -4 74 -8 11 -8 13 1 8 9 -6 12 5 10 43 -1 27 -6 50 -12 50 -5 0 -2 5 8
11 13 8 15 14 7 30 -8 14 -7 19 2 19 8 0 9 3 3 8 -15 11 -17 64 -2 57 7 -4 4
0 -6 8 -12 10 -14 16 -6 19 7 2 13 16 13 30 1 15 -2 24 -7 21 -5 -3 -6 4 -2
16 4 14 2 21 -7 21 -8 0 -6 5 5 11 17 10 17 12 2 36 -10 14 -12 22 -5 18 15
-9 11 53 -4 74 -8 11 -8 13 1 8 9 -6 12 5 10 43 -1 27 -6 50 -12 50 -5 0 -2 5
8 11 13 8 15 14 7 30 -8 14 -7 19 2 19 8 0 9 3 3 8 -15 11 -17 64 -2 57 7 -4
4 0 -6 8 -12 10 -14 16 -6 19 7 2 13 16 13 30 1 15 -2 24 -7 21 -5 -3 -6 4 -2
16 4 14 2 21 -7 21 -8 0 -6 4 5 11 13 8 15 14 7 30 -8 14 -7 19 2 19 8 0 9 3
3 8 -15 11 -17 64 -2 57 7 -4 4 0 -6 8 -12 10 -14 16 -6 19 7 2 13 16 13 30 1
15 -2 24 -6 22 -4 -3 -8 0 -8 5 0 6 6 11 13 11 7 0 8 3 2 8 -15 11 -17 64 -2
57 7 -4 4 0 -6 8 -12 10 -14 16 -6 19 7 2 13 16 13 30 1 15 -2 24 -6 22 -4 -3
-8 0 -8 5 0 6 6 11 13 11 7 0 8 3 2 8 -15 11 -17 64 -2 57 7 -4 4 0 -6 8 -12
10 -14 16 -6 19 7 2 13 16 13 30 1 15 -1 25 -5 22 -4 -2 -6 12 -4 31 2 20 -1
35 -7 35 -6 0 0 8 11 18 23 17 81 24 81 8z"/>
<path d="M3455 4483 c-2 -8 -9 -12 -14 -8 -12 7 -25 -31 -16 -45 4 -6 3 -10
-2 -9 -21 4 -21 -3 -3 -21 12 -12 18 -25 15 -30 -4 -6 -1 -10 4 -10 22 0 26
-2 44 -18 17 -15 17 -15 11 1 -4 12 -2 16 7 12 8 -3 25 5 39 17 14 13 20 19
13 14 -9 -6 -9 2 3 30 9 22 13 36 9 32 -3 -3 -19 6 -33 20 -29 29 -68 37 -77
15z"/>
<path d="M3750 4488 c0 -4 -3 -7 -7 -7 -23 4 -43 -2 -38 -10 3 -6 -3 -14 -12
-20 -10 -6 -14 -11 -9 -11 5 0 3 -6 -3 -14 -9 -10 -8 -16 4 -26 8 -7 13 -15
10 -19 -2 -4 9 -15 26 -25 16 -9 29 -13 29 -9 0 5 10 9 23 8 12 0 22 4 22 8 0
5 8 13 18 19 14 8 16 13 6 24 -10 12 -9 13 7 7 17 -6 17 -5 5 10 -8 10 -11 20
-8 23 9 10 -21 36 -33 29 -5 -3 -10 0 -10 8 0 7 -7 14 -15 14 -8 0 -15 -4 -15
-9z"/>
<path d="M3995 4484 c-16 -8 -32 -17 -34 -20 -10 -9 -10 -74 0 -74 6 0 7 -4 4
-10 -3 -5 1 -10 9 -10 9 0 16 -4 16 -9 0 -5 7 -12 16 -15 10 -4 13 -2 8 7 -5
9 -4 9 6 0 11 -10 18 -9 33 5 10 9 22 16 26 15 3 -2 6 1 6 6 0 5 3 13 7 16 4
4 3 16 -3 26 -6 13 -6 19 1 19 5 0 0 11 -12 25 -12 14 -28 23 -34 21 -7 -3
-14 -1 -16 4 -2 6 -16 3 -33 -6z"/>
<path d="M5183 3696 c-13 -13 -23 -27 -23 -31 0 -4 -8 -14 -17 -22 -12 -10
-13 -12 -3 -8 10 4 9 2 -2 -8 -10 -8 -15 -17 -11 -20 3 -4 1 -7 -5 -7 -7 0
-12 -7 -12 -16 0 -9 -5 -12 -12 -8 -6 4 -8 3 -5 -3 4 -6 -2 -27 -12 -47 -11
-21 -21 -31 -24 -24 -3 7 -6 3 -6 -9 -1 -12 -6 -25 -11 -28 -6 -4 -8 -11 -5
-16 4 -5 1 -9 -4 -9 -6 0 -11 -7 -11 -15 0 -8 -4 -15 -10 -15 -5 0 -10 -7 -10
-15 0 -8 -4 -15 -10 -15 -5 0 -9 -3 -9 -7 3 -21 -2 -33 -13 -27 -6 4 -8 3 -4
-4 3 -6 2 -13 -4 -17 -6 -4 -8 -10 -5 -15 3 -4 -2 -10 -10 -14 -9 -3 -12 -12
-8 -22 4 -12 3 -15 -5 -10 -11 6 -14 1 -11 -20 0 -3 -8 -12 -18 -20 -10 -7
-14 -14 -10 -14 5 0 -1 -12 -12 -26 -11 -15 -18 -30 -15 -35 3 -5 -2 -9 -11
-9 -9 0 -14 -4 -11 -9 8 -13 -4 -42 -15 -35 -5 3 -9 -4 -9 -15 0 -12 -5 -21
-11 -21 -5 0 -7 -4 -4 -10 3 -5 1 -10 -5 -10 -6 0 -9 -4 -6 -9 3 -5 -1 -11 -9
-15 -8 -3 -12 -12 -9 -21 4 -10 2 -15 -7 -13 -8 2 -13 -3 -12 -9 2 -7 -2 -13
-7 -13 -5 0 -9 -3 -9 -7 4 -22 -2 -33 -13 -27 -7 4 -10 4 -6 -1 4 -4 3 -14 -3
-22 -6 -7 -8 -13 -3 -13 4 0 -1 -6 -12 -14 -10 -8 -19 -25 -19 -38 -1 -13 -6
-22 -13 -21 -7 2 -12 -6 -12 -17 0 -11 -5 -20 -11 -20 -5 0 -7 -4 -4 -10 3 -5
2 -10 -4 -10 -8 0 -24 -33 -24 -50 0 -3 -7 -11 -16 -18 -13 -11 -13 -12 -1 -7
8 4 6 -1 -5 -10 -11 -9 -20 -20 -20 -25 0 -5 -9 -20 -20 -32 -10 -13 -18 -24
-17 -25 7 -10 0 -23 -10 -17 -6 4 -8 3 -4 -4 3 -6 2 -13 -4 -17 -6 -4 -8 -11
-5 -16 4 -5 2 -9 -2 -9 -5 0 -9 -9 -9 -20 0 -11 4 -20 9 -20 4 0 5 -4 2 -10
-3 -5 -1 -10 5 -10 6 0 8 -4 5 -10 -3 -5 3 -10 15 -10 12 0 19 -4 16 -9 -3 -5
1 -12 10 -15 10 -4 13 -2 9 7 -4 6 -1 5 7 -3 16 -18 48 -25 48 -10 0 5 7 10
15 10 9 0 20 11 25 24 5 13 14 27 20 31 5 3 8 11 5 16 -4 5 -2 9 3 9 5 0 15
14 22 30 7 17 16 30 21 30 5 0 9 9 9 19 0 10 7 22 16 25 9 4 14 9 11 12 -3 3
8 28 24 55 16 28 29 53 29 58 0 4 9 16 20 26 11 10 18 20 15 23 -3 3 2 13 11
23 8 9 16 24 18 32 1 8 9 22 19 31 9 10 17 26 17 37 0 11 4 18 9 15 7 -5 23
28 18 37 -1 2 6 11 16 21 9 10 17 24 17 31 0 8 6 18 13 22 7 4 21 27 31 51 11
23 23 42 28 42 5 0 7 4 4 9 -3 5 2 12 11 15 15 6 15 8 3 16 -13 8 -12 10 2 10
11 0 15 5 12 14 -3 7 2 16 11 20 9 3 13 10 10 16 -3 5 -1 10 4 10 6 0 11 7 11
16 0 8 4 12 10 9 5 -3 7 0 4 8 -3 8 2 20 11 27 8 7 15 19 15 26 0 8 5 14 11
14 6 0 9 6 6 14 -3 8 1 17 9 20 9 3 12 10 9 16 -3 5 -1 10 4 10 6 0 11 6 11
14 0 8 8 17 17 20 14 6 15 9 4 15 -9 6 -10 11 -2 15 6 4 11 4 12 -1 1 -4 4 3
8 17 4 14 13 24 19 23 6 -2 9 4 6 11 -3 8 4 24 15 35 22 22 28 37 11 26 -6 -3
-7 1 -4 9 3 9 9 16 13 16 4 0 8 7 8 15 0 8 -5 15 -11 15 -6 0 -4 5 4 10 8 5
10 10 5 10 -6 0 -22 11 -37 24 -14 14 -29 22 -32 19 -3 -4 -6 -1 -6 6 0 7 -6
11 -14 8 -7 -3 -17 -2 -22 3 -5 5 -19 -1 -31 -14z"/>
<path d="M4226 3636 c5 -14 4 -17 -4 -12 -15 9 -54 -2 -47 -14 5 -8 -24 -25
-38 -21 -5 1 -6 -3 -2 -9 3 -5 -1 -13 -9 -16 -9 -3 -16 -13 -16 -22 0 -8 -3
-13 -6 -9 -6 6 -45 -29 -43 -39 1 -11 -36 -32 -45 -27 -5 4 -6 1 -2 -5 4 -8 0
-12 -11 -12 -11 0 -14 -3 -7 -8 7 -5 5 -14 -9 -27 -11 -11 -17 -14 -13 -8 5 9
2 11 -8 7 -9 -3 -14 -9 -11 -14 2 -4 -9 -19 -25 -34 -17 -14 -30 -31 -30 -37
0 -5 -4 -8 -9 -5 -5 3 -17 -5 -27 -19 -10 -13 -22 -21 -26 -19 -5 3 -7 0 -6
-7 2 -7 -8 -18 -22 -26 -14 -7 -19 -13 -12 -13 8 0 6 -6 -5 -18 -10 -11 -22
-17 -26 -14 -5 2 -11 -5 -14 -17 -3 -11 -9 -18 -14 -15 -5 3 -9 0 -9 -6 0 -6
-5 -8 -10 -5 -6 4 -10 3 -9 -2 4 -14 -13 -43 -21 -38 -8 5 -17 -10 -18 -29 0
-5 -6 -13 -14 -17 -7 -5 -8 -9 -3 -9 6 0 11 -12 11 -26 1 -14 10 -32 20 -39
11 -8 16 -15 12 -15 -7 0 51 -60 58 -60 10 0 34 -29 34 -41 0 -7 3 -10 6 -7 7
7 54 -39 54 -53 0 -6 5 -7 10 -4 6 3 10 -2 10 -11 0 -10 3 -15 6 -11 8 8 34
-18 34 -34 0 -7 3 -10 6 -6 8 8 34 -18 34 -34 0 -7 3 -10 6 -7 7 8 74 -57 74
-72 0 -6 5 -8 10 -5 6 3 10 -1 10 -9 0 -9 5 -15 12 -13 6 1 17 -9 25 -23 7
-14 13 -21 13 -16 0 5 9 -3 21 -18 11 -14 26 -23 32 -19 6 4 8 0 4 -10 -5 -12
1 -19 21 -24 15 -3 33 -13 40 -20 10 -10 18 -11 26 -3 7 5 16 8 19 5 4 -3 5
-2 3 1 -8 10 43 56 54 49 6 -4 7 2 1 18 -6 16 -6 28 2 36 8 8 8 11 -2 11 -7 0
-10 4 -7 9 3 5 -1 11 -9 15 -8 3 -15 12 -15 21 0 8 -6 15 -13 15 -7 0 -28 20
-47 45 -32 43 -50 60 -34 33 4 -7 -14 9 -39 36 -26 28 -47 52 -47 55 0 3 -14
15 -30 26 -16 11 -30 26 -30 33 0 6 -4 12 -9 12 -14 0 -80 67 -74 74 4 3 0 6
-8 6 -16 0 -55 40 -51 53 1 4 -2 7 -8 7 -5 0 -10 6 -10 13 0 17 36 47 46 39 4
-4 4 -1 0 6 -4 7 -1 15 8 18 9 3 16 13 16 21 0 8 4 12 9 8 6 -3 15 4 21 15 6
11 16 17 22 14 7 -4 8 -3 4 4 -3 6 3 16 14 22 11 6 18 15 15 21 -4 5 1 9 9 9
8 0 17 9 21 20 3 11 9 19 13 17 11 -3 77 66 74 77 -2 5 4 6 13 3 9 -4 15 -1
15 9 0 8 7 17 15 20 8 4 15 13 15 21 0 8 5 11 10 8 6 -3 10 -1 10 5 0 6 5 8
12 4 6 -4 8 -3 5 3 -4 6 9 25 28 42 20 17 33 31 29 31 -3 0 -1 6 5 14 9 11 9
16 0 21 -8 6 -7 10 2 16 10 6 11 9 2 9 -7 0 -13 5 -13 11 0 12 -25 39 -36 39
-4 0 -18 10 -31 22 -21 20 -23 20 -17 4z"/>
<path d="M5590 3631 c0 -6 -5 -11 -12 -11 -16 0 -71 -64 -58 -68 7 -3 4 -10
-7 -18 -13 -11 -14 -14 -3 -12 9 2 14 -3 12 -14 -2 -10 2 -18 9 -18 6 0 8 -7
5 -16 -3 -8 -2 -13 2 -10 5 3 15 -4 22 -15 8 -10 21 -19 29 -19 8 0 12 -3 8
-6 -7 -8 36 -53 46 -47 4 2 7 -1 7 -7 0 -15 46 -60 54 -53 3 4 6 -1 6 -10 0
-10 8 -17 17 -17 9 0 14 -3 10 -6 -8 -8 18 -34 34 -34 7 0 10 -3 6 -6 -3 -4
26 -38 66 -77 40 -39 71 -75 69 -79 -1 -4 1 -7 5 -7 21 3 30 -3 28 -19 -1 -21
-39 -62 -57 -62 -6 0 -9 -3 -6 -6 8 -7 -45 -62 -54 -57 -5 2 -8 -1 -8 -6 0
-14 -37 -51 -43 -44 -3 2 -8 -5 -12 -17 -4 -13 -12 -19 -20 -16 -8 3 -12 0 -9
-7 2 -7 -7 -23 -21 -35 -14 -12 -25 -19 -25 -14 0 4 -6 -4 -13 -18 -8 -14 -18
-25 -23 -24 -5 0 -20 -11 -34 -24 -14 -14 -18 -22 -10 -17 8 4 4 -4 -10 -17
-14 -14 -28 -23 -32 -21 -5 2 -8 -3 -8 -11 0 -9 -5 -16 -11 -16 -5 0 -7 5 -3
12 4 7 3 8 -4 4 -6 -4 -9 -13 -6 -21 4 -9 -1 -18 -11 -21 -9 -4 -14 -12 -11
-20 3 -7 0 -15 -7 -18 -8 -3 -6 -8 6 -16 9 -6 17 -18 17 -26 0 -8 5 -12 10 -9
6 3 10 -1 10 -10 0 -9 5 -13 10 -10 6 3 13 -1 16 -10 4 -10 13 -13 25 -10 15
5 17 3 12 -12 -4 -10 14 4 40 30 26 27 51 46 56 43 5 -3 8 2 7 12 0 9 5 16 12
15 6 -2 12 2 12 8 0 14 26 40 33 33 3 -3 8 4 12 15 3 12 11 19 16 16 5 -4 9 1
9 9 0 9 7 16 16 16 8 0 12 4 9 10 -3 5 5 15 19 21 14 7 23 15 21 20 -3 4 4 11
16 14 11 4 18 9 16 12 -8 7 26 43 41 43 7 0 11 4 7 9 -3 5 4 13 16 16 11 4 18
9 15 12 -7 7 20 33 34 33 6 0 9 3 7 8 -6 9 19 33 26 26 3 -3 8 4 12 15 3 12
13 21 21 21 8 0 12 5 9 10 -3 6 5 14 20 20 14 5 30 22 36 37 8 22 12 24 19 13
6 -9 10 -10 10 -3 0 6 -5 15 -10 18 -8 5 -7 11 1 21 7 9 8 14 1 14 -5 0 -8 9
-5 20 4 14 0 20 -12 20 -12 0 -15 5 -11 17 4 10 4 14 0 10 -4 -3 -24 11 -44
33 -20 22 -40 37 -44 33 -3 -3 -6 -1 -6 6 0 7 -19 31 -42 54 -24 22 -42 44
-40 49 1 4 -1 7 -6 6 -4 -2 -28 18 -54 45 -26 26 -52 47 -59 47 -7 0 -10 3 -6
6 7 8 -17 34 -32 34 -6 0 -11 4 -11 9 0 15 -68 80 -76 73 -4 -4 -4 2 0 13 4
11 4 16 1 13 -4 -4 -24 11 -44 33 -21 21 -41 36 -44 32 -4 -3 -7 -1 -7 5 0 7
-5 12 -11 12 -5 0 -7 -6 -3 -12 5 -9 2 -9 -9 1 -11 9 -17 10 -17 2z"/>
</g>
</svg>
